<svg width="662" height="149" viewBox="0 0 662 149" fill="none" xmlns="http://www.w3.org/2000/svg">
<g clip-path="url(#clip0_229_197)">
<g clip-path="url(#clip1_229_197)">
<path d="M347.862 5.54036H662V0.0236511H347.862V5.54036Z" fill="black"/>
<path d="M347.862 148.317H662V142.8H347.862V148.317Z" fill="black"/>
<path d="M391.483 93.4514V109.273C391.483 122.767 384.814 129.438 371.325 129.438H367.915C354.577 129.438 348.064 122.767 348.064 109.58V94.4592H360.158V110.049C360.158 115.632 362.797 118.267 368.378 118.267H370.856C376.442 118.267 379.077 115.632 379.077 110.049V93.759C379.077 88.3321 377.218 86.0043 373.647 83.369L358.455 72.3545C350.391 66.6154 348.064 61.0325 348.064 52.1897V39.1644C348.064 25.6707 354.733 18.9996 368.222 18.9996H371.325C384.658 18.9996 391.171 25.6707 391.171 38.8521V48.1586H379.077V38.3885C379.077 32.8008 376.442 30.1654 370.856 30.1654H368.685C363.104 30.1654 360.47 32.8008 360.47 38.3885V52.0383C360.47 57.4651 362.485 59.7929 366.051 62.4282L381.096 73.2866C389 79.0257 391.483 84.1449 391.483 93.4514Z" fill="black"/>
<path d="M410.52 128.506V31.4055H394.241V19.9273H439.206V31.4055H422.926V128.506H410.52Z" fill="black"/>
<path d="M488.131 109.272C488.131 122.766 481.462 129.437 467.973 129.437H464.095C450.606 129.437 443.937 122.766 443.937 109.272V19.9259H456.343V109.892C456.343 115.479 458.977 118.115 464.563 118.115H467.51C473.091 118.115 475.725 115.479 475.725 109.892V19.9259H488.131V109.272Z" fill="black"/>
<path d="M508.447 117.182H515.891C524.263 117.182 528.141 112.995 528.141 104.621V43.8138C528.141 35.4394 524.263 31.2522 515.891 31.2522H508.447V117.182ZM496.041 19.9302H516.511C532.791 19.9302 540.543 27.6848 540.543 43.9699V104.464C540.543 120.75 532.791 128.504 516.511 128.504H496.041V19.9302Z" fill="black"/>
<path d="M560.415 128.507H548.009V19.9283H560.415V128.507Z" fill="black"/>
<path d="M592.222 30.3201H588.5C582.919 30.3201 580.285 32.9602 580.285 38.5431V109.891C580.285 115.479 582.919 118.114 588.5 118.114H592.222C597.803 118.114 600.438 115.479 600.438 109.891V38.5431C600.438 32.9602 597.803 30.3201 592.222 30.3201ZM592.686 129.436H588.037C574.547 129.436 567.879 122.77 567.879 109.271V39.1629C567.879 25.6692 574.547 18.9981 588.037 18.9981H592.686C606.18 18.9981 612.844 25.6692 612.844 39.1629V109.271C612.844 122.77 606.18 129.436 592.686 129.436" fill="black"/>
<path d="M661.732 93.4514V109.273C661.732 122.767 655.063 129.438 641.574 129.438H638.164C624.826 129.438 618.313 122.767 618.313 109.58V94.4592H630.407V110.049C630.407 115.632 633.046 118.267 638.627 118.267H641.106C646.691 118.267 649.326 115.632 649.326 110.049V93.759C649.326 88.3321 647.467 86.0043 643.896 83.369L628.704 72.3545C620.64 66.6154 618.313 61.0325 618.313 52.1897V39.1644C618.313 25.6707 624.982 18.9996 638.471 18.9996H641.574C654.907 18.9996 661.424 25.6707 661.424 38.8521V48.1586H649.326V38.3885C649.326 32.8008 646.691 30.1654 641.106 30.1654H638.935C633.353 30.1654 630.719 32.8008 630.719 38.3885V52.0383C630.719 57.4651 632.734 59.7929 636.3 62.4282L651.345 73.2866C659.249 79.0257 661.732 84.1449 661.732 93.4514Z" fill="black"/>
<path d="M0 148.374H329.293V0H0V148.374Z" fill="#E50B14"/>
<path d="M279.071 39.6961H261.496V64.2232H279.071V84.0474H261.496V108.944H279.071V128.474H242.061V30.0632L226.458 128.474L203.628 128.536C203.628 128.536 191.983 58.8437 191.964 58.697V58.7018C193.847 69.9623 186.771 81.7243 180.513 86.3657L192.868 128.474H192.849H192.815L192.825 128.498H192.792H173.651H173.632L164.21 92.5638L159.67 93.2309V128.474H159.636H159.613V128.498H159.594L122.48 128.474L120.2 111.773H104.98L102.691 128.474H64.8955V76.1414L56.1029 128.474H45.6833L36.7631 76.1414V128.474H17.1537V19.9003H42.0509L50.7915 75.9947L59.7637 19.9003H84.6468V119.75L99.6163 19.8861L125.62 19.9003L140.098 116.287L140.174 19.9003C140.174 19.9003 159.93 19.8909 160.048 19.9003C177.941 19.9003 186.066 33.0297 188.36 37.5528L186.137 19.9003H205.988L214.946 86.0251L224.008 19.9003H279.071V39.6961Z" fill="white"/>
<path d="M159.765 39.2226C159.722 39.2226 159.689 39.2226 159.67 39.2226V74.1396C161.203 74.1396 162.768 73.7753 164.277 73.0514C168.851 70.823 172.743 65.2779 172.743 56.4918C172.743 39.6768 161.297 39.2084 159.765 39.2226Z" fill="#E50B14"/>
<path d="M107.288 94.4842H118.256L112.67 48.0606L107.288 94.4842Z" fill="#E50B14"/>
<path d="M318.566 128.451H282.459V19.8814H301.903V108.925H318.566V128.451Z" fill="white"/>
</g>
</g>
<defs>
<clipPath id="clip0_229_197">
<rect width="662" height="149" fill="white"/>
</clipPath>
<clipPath id="clip1_229_197">
<rect width="662" height="149" fill="white"/>
</clipPath>
</defs>
</svg>
